<svg width="23" height="26" viewBox="0 0 23 26" fill="none" xmlns="http://www.w3.org/2000/svg">
<path d="M0.413729 18.3589C0.0131642 17.6864 0.28979 16.815 1.00488 16.4968L7.33836 13.6778C7.72118 13.5074 8.1625 13.531 8.52498 13.7412L12.144 15.8401C12.5046 16.0492 12.7437 16.4178 12.7877 16.8322L13.5267 23.7916C13.6091 24.5676 12.9972 25.2423 12.2168 25.2359L9.28918 25.2118C8.5013 25.2053 7.89839 24.5081 8.00569 23.7275L8.59113 19.4685C8.63915 19.1191 8.47068 18.7755 8.16508 18.5995C7.85908 18.4233 7.47675 18.4504 7.19864 18.668L3.86447 21.2766C3.24462 21.7615 2.33985 21.5924 1.93709 20.9162L0.413729 18.3589Z" fill="white"/>
<path fill-rule="evenodd" clip-rule="evenodd" d="M14.1675 15.6496L19.7643 19.7665C20.0812 19.9996 20.5307 19.9018 20.7221 19.5581L22.1725 16.9526C22.3635 16.6095 22.2107 16.1766 21.8467 16.0294L17.8812 14.4251C17.3069 14.1928 16.931 13.6353 16.931 13.0158C16.931 12.4002 17.3022 11.8453 17.8712 11.6105L21.8506 9.96777C22.2128 9.81824 22.3628 9.38563 22.1708 9.04399L20.7256 6.47219C20.5334 6.13015 20.0852 6.03353 19.7691 6.266L14.1675 10.3864C14.0001 10.5094 13.9013 10.7048 13.9013 10.9125V15.1234C13.9013 15.3312 14.0001 15.5265 14.1675 15.6496ZM13.7804 16.1758C13.4457 15.9296 13.2481 15.5389 13.2481 15.1234V10.9125C13.2481 10.4971 13.4457 10.1064 13.7804 9.86017L19.3821 5.73982C20.0142 5.27486 20.9106 5.46812 21.2951 6.1522L22.7402 8.724C23.1242 9.40727 22.8243 10.2725 22.0998 10.5716L18.1205 12.2142C17.7959 12.3482 17.5842 12.6647 17.5842 13.0158C17.5842 13.3691 17.7986 13.6871 18.1261 13.8196L22.0917 15.4238C22.8197 15.7184 23.1252 16.5841 22.7432 17.2703L21.2928 19.8758C20.9101 20.5632 20.011 20.7589 19.3772 20.2927L13.7804 16.1758Z" fill="#2DEBFC"/>
<path d="M12.1441 10.1478C12.5047 9.93872 12.7438 9.57012 12.7878 9.15565L13.5255 2.20842C13.6083 1.42808 12.9894 0.751295 12.2048 0.764252L9.27676 0.812604C8.4933 0.825542 7.89739 1.52047 8.00409 2.29674L8.59101 6.56652C8.63916 6.9168 8.4702 7.26131 8.16376 7.43769C7.85833 7.61349 7.47695 7.58734 7.19838 7.37149L3.81845 4.75265C3.19711 4.27122 2.29439 4.44352 1.89404 5.11995L0.408119 7.6306C0.0102085 8.30291 0.287421 9.17185 1.00116 9.48952L7.33845 12.3101C7.72127 12.4805 8.16258 12.4569 8.52506 12.2467L12.1441 10.1478Z" fill="#2C85FC"/>
</svg>
